<?xml version="1.0" encoding="UTF-8"?>
<svg version="1.1" xmlns="http://www.w3.org/2000/svg" width="500" height="500">
<path d="M0 0 C165 0 330 0 500 0 C500 165 500 330 500 500 C335 500 170 500 0 500 C0 335 0 170 0 0 Z " fill="#FEFEFE" transform="translate(0,0)"/>
<path d="M0 0 C16.025625 -0.061875 16.025625 -0.061875 32.375 -0.125 C37.40693604 -0.15231201 37.40693604 -0.15231201 42.54052734 -0.18017578 C45.2223291 -0.18602124 47.90413265 -0.19111667 50.5859375 -0.1953125 C51.26967438 -0.20053925 51.95341125 -0.20576599 52.65786743 -0.21115112 C68.68665923 -0.32739501 83.17676848 1.90696726 95.7421875 12.71484375 C105.34253512 22.43145856 108.22397152 33.93190023 108.3125 47.25 C108.1242277 59.87906868 104.66881713 71.91413845 95.828125 81.40625 C90.02212732 86.467889 83.58907254 90.48218549 76 92 C80.91257221 98.07868784 85.89828001 104.07988757 91 110 C105.31102662 126.62205323 105.31102662 126.62205323 107 130 C106.38253906 130.08636719 105.76507813 130.17273438 105.12890625 130.26171875 C96.73881306 131.65368246 89.91568537 134.13029481 84.5625 141 C82.60063571 143.86943031 81.04349959 146.66080131 80 150 C76.94547471 148.6721583 75.23442971 147.38941856 73.2578125 144.71875 C72.75612549 144.05069336 72.25443848 143.38263672 71.73754883 142.69433594 C70.93933716 141.60813965 70.93933716 141.60813965 70.125 140.5 C68.96569224 138.952489 67.80550621 137.40563563 66.64453125 135.859375 C66.04592285 135.05822266 65.44731445 134.25707031 64.83056641 133.43164062 C61.87158751 129.50106849 58.84174013 125.62651319 55.8125 121.75 C54.64684368 120.25413354 53.48147377 118.75804384 52.31640625 117.26171875 C51.75969238 116.54677246 51.20297852 115.83182617 50.62939453 115.09521484 C48.16251478 111.92308987 45.7034078 108.74505312 43.25 105.5625 C42.47140625 104.55316406 41.6928125 103.54382813 40.890625 102.50390625 C39.53677906 100.71089954 38.24625863 98.86938795 37 97 C36.67 117.13 36.34 137.26 36 158 C14.42090442 159.20722213 14.42090442 159.20722213 7.83984375 158.96484375 C7.06120972 158.96657593 6.28257568 158.96830811 5.48034668 158.97009277 C1.06727973 158.8027915 -1.38610224 158.12097323 -4.59863281 154.99829102 C-6.7320081 152.50873863 -8.17012471 150.30915737 -9.07421875 147.125 C-11.25048848 140.79675144 -14.93386 135.60050242 -18.625 130.0625 C-20.01060901 127.91018515 -21.39206963 125.75519444 -22.76953125 123.59765625 C-23.46643066 122.5111377 -24.16333008 121.42461914 -24.88134766 120.30517578 C-26.98965168 117.01614376 -29.09498636 113.72523195 -31.19921875 110.43359375 C-37.48058746 100.60807186 -43.76386867 90.78417046 -50.11254883 81.00195312 C-54.43027056 74.34844439 -58.71064407 67.67233144 -63 61 C-63.33 93.01 -63.66 125.02 -64 158 C-75.88 158 -87.76 158 -100 158 C-100 121.7 -100 85.4 -100 48 C-93.07 47.34 -86.14 46.68 -79 46 C-66.94198685 40.86223788 -57.33373346 33.61184468 -51 22 C-46.93504364 23.35498545 -45.89573514 25.98480938 -43.8125 29.5 C-42.91703613 30.97107088 -42.01977804 32.44105053 -41.12109375 33.91015625 C-40.37835205 35.12856201 -40.37835205 35.12856201 -39.62060547 36.37158203 C-36.60214263 41.26714861 -33.48286689 46.09839767 -30.375 50.9375 C-29.00125239 53.08069731 -27.62755531 55.22392702 -26.25390625 57.3671875 C-25.55797363 58.45225586 -24.86204102 59.53732422 -24.14501953 60.65527344 C-21.2344848 65.193667 -18.32581237 69.73325074 -15.41845703 74.27368164 C-14.05140114 76.40857729 -12.68391343 78.54319651 -11.31591797 80.67749023 C-10.38030029 82.13844116 -10.38030029 82.13844116 -9.42578125 83.62890625 C-8.88348877 84.47525635 -8.34119629 85.32160645 -7.7824707 86.19360352 C-5.50233604 89.78354296 -3.25400264 93.39359578 -1 97 C-0.67 64.99 -0.34 32.98 0 0 Z " fill="#010101" transform="translate(234,137)"/>
<path d="M0 0 C22.25454545 0 22.25454545 0 29.0390625 5.71875 C34.0913075 11.36960222 34.29336194 16.34742518 34.2109375 23.765625 C33.83703669 29.49877074 32.40390642 32.5634446 28.3125 36.75 C19.10583942 43.48820811 12.17411009 42 0 42 C0 28.14 0 14.28 0 0 Z " fill="#FAFAFA" transform="translate(270,165)"/>
<path d="M0 0 C5.46341463 2.92682927 5.46341463 2.92682927 7 6 C7.51512617 10.09157355 7.94367269 14.23589546 5.953125 17.95703125 C2.86793919 21.68647644 1.03209251 22.89679075 -3.75 23.375 C-7.10058068 23.35058775 -8.84894532 22.75601354 -11.4375 20.625 C-14.65226494 17.33182616 -15.21336749 15.73265011 -15.4375 11.25 C-15.38319008 7.50261564 -15.04363171 5.23995319 -12.5625 2.375 C-8.71279488 -0.82853712 -4.78561571 -1.02548908 0 0 Z " fill="#040404" transform="translate(344,283)"/>
<path d="M0 0 C4.0743356 0.84881992 5.54405875 2.30225596 8 5.625 C8.625 8.625 8.625 8.625 8 11.625 C5.51397551 14.98844489 4.08574477 16.42557749 -0.0625 17.1875 C-3.74345769 16.48263576 -4.87000351 15.7016616 -7 12.625 C-8.0625 9.1875 -8.0625 9.1875 -8 5.625 C-5.59686932 2.20235933 -4.11289267 0.85685264 0 0 Z " fill="#161616" transform="translate(224,315.375)"/>
<path d="M0 0 C6.8359375 -0.1953125 6.8359375 -0.1953125 9 0 C11 2 11 2 11.1875 5 C11 8 11 8 10 10 C11.98 12.97 11.98 12.97 14 16 C11.21788056 15.62403791 9.4120716 15.32681541 7.1875 13.5625 C6 12 6 12 6 10 C5.34 10 4.68 10 4 10 C4 11.98 4 13.96 4 16 C2.68 16 1.36 16 0 16 C0 10.72 0 5.44 0 0 Z " fill="#272727" transform="translate(183,316)"/>
<path d="M0 0 C6.8359375 -0.1953125 6.8359375 -0.1953125 9 0 C11 2 11 2 11.3125 5 C11.1578125 6.485 11.1578125 6.485 11 8 C8 10 8 10 4 10 C4 11.98 4 13.96 4 16 C2.68 16 1.36 16 0 16 C0 10.72 0 5.44 0 0 Z " fill="#2D2D2D" transform="translate(284,316)"/>
<path d="M0 0 C0.928125 0.165 1.85625 0.33 2.8125 0.5 C3.4725 1.49 4.1325 2.48 4.8125 3.5 C2.1385876 4.39130413 -0.42473823 4.97731534 -3.1875 5.5 C-3.86708603 7.89719432 -3.86708603 7.89719432 -4.1875 10.5 C-3.5275 11.16 -2.8675 11.82 -2.1875 12.5 C-0.8675 12.5 0.4525 12.5 1.8125 12.5 C2.1425 11.84 2.4725 11.18 2.8125 10.5 C1.8225 10.5 0.8325 10.5 -0.1875 10.5 C-0.1875 9.51 -0.1875 8.52 -0.1875 7.5 C1.7925 7.5 3.7725 7.5 5.8125 7.5 C6 10.875 6 10.875 5.8125 14.5 C2.07994552 16.98836965 0.22809065 17.04226552 -4.1875 16.5 C-7.1111459 13.9511805 -8.03659176 12.30484394 -8.75 8.5 C-7.7884641 3.37180856 -5.14053825 0.80635894 0 0 Z " fill="#101010" transform="translate(157.1875,315.5)"/>
<path d="M0 0 C1.32 0 2.64 0 4 0 C4.33 3.96 4.66 7.92 5 12 C6.32 11.67 7.64 11.34 9 11 C9.33 7.37 9.66 3.74 10 0 C10.99 0 11.98 0 13 0 C13.08133791 1.91595968 13.13934367 3.83291932 13.1875 5.75 C13.22230469 6.81734375 13.25710938 7.8846875 13.29296875 8.984375 C12.96725661 12.33703866 12.38476926 13.65980586 10 16 C7.0625 16.5 7.0625 16.5 4 16 C1.82421875 14.359375 1.82421875 14.359375 0 12 C-0.390625 8.984375 -0.390625 8.984375 -0.25 5.75 C-0.21390625 4.67234375 -0.1778125 3.5946875 -0.140625 2.484375 C-0.09421875 1.66453125 -0.0478125 0.8446875 0 0 Z " fill="#151515" transform="translate(251,316)"/>
<path d="M0 0 C0.99 0.103125 1.98 0.20625 3 0.3125 C3.66 1.3025 4.32 2.2925 5 3.3125 C1.86650268 4.35699911 1.01031744 4.24673645 -2 3.3125 C-1.67 4.3025 -1.34 5.2925 -1 6.3125 C2.50294871 8.02817661 2.50294871 8.02817661 6 9.3125 C5.25 14.0625 5.25 14.0625 3 16.3125 C-0.625 16.4375 -0.625 16.4375 -4 16.3125 C-4.66 14.9925 -5.32 13.6725 -6 12.3125 C-2.37673261 11.1047442 -1.35853631 11.76938872 2 13.3125 C2 12.3225 2 11.3325 2 10.3125 C1.05125 10.18875 0.1025 10.065 -0.875 9.9375 C-4 9.3125 -4 9.3125 -6 7.3125 C-5.54792997 2.79179975 -4.85245508 0.50546407 0 0 Z " fill="#131313" transform="translate(321,315.6875)"/>
<path d="M0 0 C4.55555556 0.55555556 4.55555556 0.55555556 6 2 C6.1875 4.9375 6.1875 4.9375 6 8 C5.34 8.66 4.68 9.32 4 10 C-0.55555556 9.44444444 -0.55555556 9.44444444 -2 8 C-2.1875 5.0625 -2.1875 5.0625 -2 2 C-1.34 1.34 -0.68 0.68 0 0 Z " fill="#F0F0F0" transform="translate(222,319)"/>
</svg>
