<?xml version="1.0" encoding="UTF-8"?>
<svg version="1.1" xmlns="http://www.w3.org/2000/svg" width="500" height="500">
<path d="M0 0 C165 0 330 0 500 0 C500 165 500 330 500 500 C335 500 170 500 0 500 C0 335 0 170 0 0 Z " fill="#FEFEFE" transform="translate(0,0)"/>
<path d="M0 0 C19.243125 -0.061875 38.48625 -0.12375 58.3125 -0.1875 C67.37199097 -0.22846802 67.37199097 -0.22846802 76.61450195 -0.27026367 C84.08239746 -0.28381348 84.08239746 -0.28381348 87.59635925 -0.28633118 C90.01137458 -0.29088909 92.42638378 -0.30133677 94.84135437 -0.31672668 C130.99345666 -0.53527068 130.99345666 -0.53527068 147.8125 6.125 C148.59036865 6.4235791 149.3682373 6.7221582 150.16967773 7.02978516 C171.08682092 15.42929526 187.27211821 31.25368583 196.15429688 51.91748047 C205.55161167 75.05809688 203.13845327 104.16289098 194 127 C184.28837071 149.00964549 167.65859443 161.88434982 146 171 C145.01 171.33 144.02 171.66 143 172 C144.65185806 175.91726339 147.30424285 178.89088006 150.0625 182.0625 C151.06455869 183.22981968 152.06585029 184.39779826 153.06640625 185.56640625 C153.56414551 186.14664551 154.06188477 186.72688477 154.57470703 187.32470703 C156.58525686 189.6879124 158.54414643 192.09143529 160.5 194.5 C163.78823483 198.53983137 167.12721426 202.53092065 170.5 206.5 C174.61391527 211.34123731 178.6582241 216.23268742 182.6640625 221.1640625 C184.39083756 223.26044827 186.13225075 225.33576301 187.8984375 227.3984375 C188.39279297 227.97658203 188.88714844 228.55472656 189.39648438 229.15039062 C190.35550838 230.26904081 191.31757281 231.38509432 192.28320312 232.49804688 C194.86701992 235.51313031 197.06685374 238.53057856 199 242 C198.05640625 242.08636719 197.1128125 242.17273438 196.140625 242.26171875 C183.8668071 243.60493778 173.47529283 246.69881954 164 255 C163.11054687 255.73283203 163.11054687 255.73283203 162.203125 256.48046875 C155.06073768 262.8801742 150.79046301 271.94801023 148 281 C144.3626702 277.49234327 141.148275 273.81721984 138.0625 269.8125 C137.597229 269.21445557 137.13195801 268.61641113 136.65258789 268.00024414 C135.63966221 266.69757885 134.6282442 265.39374014 133.61816406 264.08886719 C131.92424256 261.90220569 130.2244743 259.7201927 128.5234375 257.5390625 C120.85857078 247.70683084 113.24518541 237.83622499 105.65625 227.9453125 C100.79260244 221.61309603 95.90515423 215.3001316 91 209 C83.25796446 199.05505661 75.56226864 189.08302486 68 179 C67.67 216.95 67.34 254.9 67 294 C56.11 294.226875 45.22 294.45375 34 294.6875 C28.86244141 294.83771606 28.86244141 294.83771606 23.62109375 294.9909668 C20.89327734 295.02310613 18.16540806 295.05113361 15.4375 295.07421875 C14.73778076 295.10296585 14.03806152 295.13171295 13.31713867 295.16133118 C1.79125238 295.61074933 1.79125238 295.61074933 -2.6403656 291.6257019 C-4.69724373 288.83314312 -6.38250706 286.06390796 -8 283 C-8.8777541 281.59332462 -9.76240518 280.19087318 -10.66015625 278.796875 C-11.46466814 277.45013827 -12.26535706 276.10111151 -13.0625 274.75 C-17.3290528 267.64794989 -21.76721264 260.67676351 -26.3125 253.75 C-31.34718494 246.07596426 -36.33423737 238.37581504 -41.25 230.625 C-45.30530061 224.23142194 -49.37638122 217.84975054 -53.5 211.5 C-57.59703258 205.18841627 -61.65166204 198.85088249 -65.6875 192.5 C-75.28076467 177.40399302 -84.89075058 162.31810222 -94.625 147.3125 C-96.41865851 144.54295101 -98.20992333 141.77186533 -100 139 C-100.59151855 138.08460449 -101.18303711 137.16920898 -101.79248047 136.22607422 C-103.72063495 133.23711644 -105.64222845 130.24402706 -107.5625 127.25 C-108.17109863 126.30809814 -108.77969727 125.36619629 -109.40673828 124.39575195 C-109.97505371 123.50718506 -110.54336914 122.61861816 -111.12890625 121.703125 C-111.63494385 120.91583008 -112.14098145 120.12853516 -112.66235352 119.31738281 C-114.03363331 116.94173254 -115.04481814 114.56799265 -116 112 C-116.66 112 -117.32 112 -118 112 C-118 172.06 -118 232.12 -118 294 C-140.11 294 -162.22 294 -185 294 C-185 226.68 -185 159.36 -185 90 C-177.74 89.67 -170.48 89.34 -163 89 C-142.01703214 86.51814359 -123.73228429 76.92556499 -109 62 C-108.26007813 61.25878906 -107.52015625 60.51757812 -106.7578125 59.75390625 C-101.13785504 53.79500194 -97.09860817 47.0526582 -93 40 C-88.76529659 43.87302056 -86.00717725 47.93787136 -83.125 52.875 C-78.80438334 60.10917318 -74.3136611 67.20741871 -69.6875 74.25 C-64.7612663 81.75996629 -59.87474471 89.29142406 -55.0625 96.875 C-54.49644043 97.76695068 -53.93038086 98.65890137 -53.34716797 99.57788086 C-52.17868352 101.41925344 -51.01022696 103.26064371 -49.84179688 105.10205078 C-41.64928436 117.99244361 -33.40898121 130.85270557 -25.09228516 143.66333008 C-20.66318238 150.49673159 -16.3006217 157.37238062 -11.94482422 164.25268555 C-11.38939941 165.12836182 -10.83397461 166.00403809 -10.26171875 166.90625 C-9.77662842 167.67259766 -9.29153809 168.43894531 -8.79174805 169.22851562 C-6.23702946 173.18016645 -3.61016541 177.08475188 -1 181 C-0.67 121.27 -0.34 61.54 0 0 Z " fill="#000000" transform="translate(247,61)"/>
<path d="M0 0 C31.89198606 0 31.89198606 0 43 4 C44.21623047 4.41572266 44.21623047 4.41572266 45.45703125 4.83984375 C52.85314143 7.9085931 58.14384193 14.62761305 61.4375 21.75 C65.97409471 32.73547598 65.12644446 46.0221006 61 57 C56.43640676 66.22670409 49.90967684 71.17702911 40.4375 74.875 C31 77 31 77 0 77 C0 51.59 0 26.18 0 0 Z " fill="#FBFBFB" transform="translate(314,114)"/>
<path d="M0 0 C5.09620539 3.01237564 8.70841667 7.93775001 10.5625 13.5 C11.26576086 20.63636835 10.9511579 26.6356238 6.5625 32.5 C2.28698674 37.04906506 -1.95636485 40.04385126 -8.26953125 40.87109375 C-15.38194446 41.02956167 -20.04009731 40.28377686 -25.4375 35.5 C-30.23995921 30.80808333 -32.70746027 25.99101012 -32.875 19.25 C-32.74732452 13.32904975 -31.14908404 9.10939863 -27.4375 4.5 C-20.09292765 -2.21779266 -9.27186371 -4.07890128 0 0 Z " fill="#020202" transform="translate(455.4375,334.5)"/>
<path d="M0 0 C4.81852225 2.36380337 7.67076821 5.16236475 10 10 C10.80165291 15.0226009 10.59932381 18.80135239 8.3125 23.375 C7.549375 24.24125 6.78625 25.1075 6 26 C5.319375 26.78375 4.63875 27.5675 3.9375 28.375 C-0.60913577 30.89016021 -4.92836555 30.86389074 -10 30 C-14.20909543 27.93356281 -17.24318125 24.29444583 -19 20 C-19.70416853 15.39247749 -19.52683016 11.37411516 -17.375 7.1875 C-12.61950256 0.80512186 -7.78240411 -1.36925602 0 0 Z " fill="#0A0A0A" transform="translate(233,396)"/>
<path d="M0 0 C15 0 15 0 20 3 C22.34168764 6.51253146 22.49623677 7.86469356 22 12 C20 14.875 20 14.875 18 17 C19.46818668 20.10742423 21.20025 22.90471739 23.125 25.75 C23.66382813 26.54921875 24.20265625 27.3484375 24.7578125 28.171875 C25.16773438 28.77515625 25.57765625 29.3784375 26 30 C21.06788991 30.96880734 21.06788991 30.96880734 18 30 C15.56184987 27.33313844 13.68565855 24.55957534 11.76171875 21.50390625 C10.18079808 18.73031354 10.18079808 18.73031354 7 18 C7 21.96 7 25.92 7 30 C4.69 30 2.38 30 0 30 C0 20.1 0 10.2 0 0 Z " fill="#121212" transform="translate(152,396)"/>
<path d="M0 0 C2.35039822 1.10804487 3.96979564 2.3341913 6 4 C4.8046875 6.03515625 4.8046875 6.03515625 3 8 C0.6953125 7.99609375 0.6953125 7.99609375 -1.875 7.4375 C-6.23353983 6.78778737 -6.23353983 6.78778737 -10.125 9.0625 C-12.32591851 12.51060567 -12.75156183 13.99167024 -12 18 C-10.59121904 20.9901643 -10.59121904 20.9901643 -8 23 C-4.55602925 23.35627284 -2.12860495 23.56430248 1 22 C1.33 21.01 1.66 20.02 2 19 C0.02 19 -1.96 19 -4 19 C-4 17.02 -4 15.04 -4 13 C-0.04 13 3.92 13 8 13 C8.8161679 22.56082394 8.8161679 22.56082394 6.828125 26.06640625 C3.42686997 29.42717015 0.23531105 30.44302121 -4.5 30.75 C-9.4430806 30.47802858 -12.14011139 29.1112858 -15.66015625 25.703125 C-18.79812221 21.71434027 -19.49820402 18.3776169 -19.3828125 13.3828125 C-18.5495673 8.19628624 -15.59866212 4.421033 -11.75 1 C-7.77107069 -0.44688339 -4.17984755 -0.69664126 0 0 Z " fill="#0F0F0F" transform="translate(108,396)"/>
<path d="M0 0 C15 0 15 0 18.9375 2 C21.79117716 6.15080314 21.7099846 8.0301078 21 13 C19.25746655 16.23613354 18.52814056 16.82395315 15 18 C13.60560336 18.06665376 12.20830125 18.08538199 10.8125 18.0625 C8.9253125 18.0315625 8.9253125 18.0315625 7 18 C7 21.96 7 25.92 7 30 C4.69 30 2.38 30 0 30 C0 20.1 0 10.2 0 0 Z " fill="#111111" transform="translate(340,396)"/>
<path d="M0 0 C2.9375 2 2.9375 2 5 4 C4.67 4.99 4.34 5.98 4 7 C2 7.75 2 7.75 0 8 C-0.33 7.67 -0.66 7.34 -1 7 C-3.33297433 6.95907063 -5.66705225 6.95758277 -8 7 C-7.8760595 8.97947498 -7.8760595 8.97947498 -7 11 C-4.81461725 11.99927996 -4.81461725 11.99927996 -2.1875 12.5 C4.70126161 14.3429162 4.70126161 14.3429162 7 18 C7.5625 20.9375 7.5625 20.9375 7 24 C4.27737298 27.22416358 2.10229326 29.77302675 -2.20703125 30.23828125 C-6.59399059 30.36324711 -9.25480619 30.43221241 -13.125 28.1875 C-15 26 -15 26 -15 23 C-13.35 22.34 -11.7 21.68 -10 21 C-9.443125 21.7734375 -9.443125 21.7734375 -8.875 22.5625 C-6.96826848 24.36319983 -6.96826848 24.36319983 -3.8125 23.6875 C-2.884375 23.460625 -1.95625 23.23375 -1 23 C-1 22.01 -1 21.02 -1 20 C-1.67546875 19.82984375 -2.3509375 19.6596875 -3.046875 19.484375 C-12.62803235 16.88140162 -12.62803235 16.88140162 -15 13 C-15.5625 9.5625 -15.5625 9.5625 -15 6 C-10.60718182 0.53865848 -6.90609703 -0.59535319 0 0 Z " fill="#0B0B0B" transform="translate(413,396)"/>
<path d="M0 0 C1.98 0 3.96 0 6 0 C6.01981934 0.55985596 6.03963867 1.11971191 6.06005859 1.6965332 C6.15537783 4.23565854 6.26502753 6.77396888 6.375 9.3125 C6.4059375 10.19357422 6.436875 11.07464844 6.46875 11.98242188 C6.50742187 12.82998047 6.54609375 13.67753906 6.5859375 14.55078125 C6.6173584 15.33106689 6.6487793 16.11135254 6.68115234 16.9152832 C6.89587889 19.30155768 6.89587889 19.30155768 9 22 C11.5 22.5 11.5 22.5 14 22 C16.05127844 18.92308234 16.27260872 18.06355001 16.4140625 14.55078125 C16.45273437 13.70322266 16.49140625 12.85566406 16.53125 11.98242188 C16.5621875 11.10134766 16.593125 10.22027344 16.625 9.3125 C16.66367187 8.41982422 16.70234375 7.52714844 16.7421875 6.60742188 C16.83640218 4.4051538 16.92201588 2.20289278 17 0 C18.98 0 20.96 0 23 0 C23.08745946 3.3956697 23.14054444 6.79104773 23.1875 10.1875 C23.21263672 11.14720703 23.23777344 12.10691406 23.26367188 13.09570312 C23.35729357 22.11459284 23.35729357 22.11459284 20 26 C17.13793078 28.69580794 15.04079719 29.4908138 11.125 29.625 C10.30257813 29.67914063 9.48015625 29.73328125 8.6328125 29.7890625 C5.11068822 28.73347036 3.44553037 27.11338084 1.18212891 24.25488281 C-1.0995806 19.90257612 -0.61818575 15.35450636 -0.375 10.5625 C-0.34792969 9.54478516 -0.32085937 8.52707031 -0.29296875 7.47851562 C-0.22268507 4.98344487 -0.12437201 2.49286153 0 0 Z " fill="#030303" transform="translate(280,397)"/>
<path d="M0 0 C4.08078346 1.33552913 5.36305322 2.39099579 7.4375 6.125 C8.11204401 10.75044464 7.20611776 13.39801456 4.4375 17.125 C1.30889505 18.68930248 -1.11852925 18.48127284 -4.5625 18.125 C-7.1270399 16.02076213 -8.27848916 14.4539564 -8.9765625 11.1875 C-9.26370899 7.19767514 -8.78384018 5.45365663 -6.5 2.0625 C-3.5625 0.125 -3.5625 0.125 0 0 Z " fill="#F7F7F7" transform="translate(229.5625,401.875)"/>
<path d="M0 0 C2.31 0 4.62 0 7 0 C7.38218767 1.65614657 7.71395102 3.32457024 8 5 C7 6 7 6 3.4375 6.0625 C2.303125 6.041875 1.16875 6.02125 0 6 C0 4.02 0 2.04 0 0 Z " fill="#F3F3F3" transform="translate(347,402)"/>
<path d="M0 0 C2.31 0 4.62 0 7 0 C7.38218767 1.65614657 7.71395102 3.32457024 8 5 C7 6 7 6 3.4375 6.0625 C2.303125 6.041875 1.16875 6.02125 0 6 C0 4.02 0 2.04 0 0 Z " fill="#F6F6F6" transform="translate(159,402)"/>
</svg>
